{
    "asset" : {
        "generator" : "Khronos glTF Blender I/O v1.7.33",
        "version" : "2.0"
    },
    "scene" : 0,
    "scenes" : [
        {
            "name" : "Scene",
            "nodes" : [
                0,
                1
            ]
        }
    ],
    "nodes" : [
        {
            "mesh" : 0,
            "name" : "Cube",
            "scale" : [
                -7.555781364440918,
                6.368951797485352,
                6.368951797485352
            ],
            "translation" : [
                0,
                0,
                -0.4567534327507019
            ]
        },
        {
            "name" : "Empty",
            "rotation" : [
                0.49681591987609863,
                0.49681591987609863,
                -0.5031639337539673,
                0.5031639337539673
            ],
            "translation" : [
                -3,
                -3.049999952316284,
                0
            ]
        }
    ],
    "materials" : [
        {
            "doubleSided" : true,
            "name" : "Material",
            "pbrMetallicRoughness" : {
                "baseColorTexture" : {
                    "index" : 0
                },
                "metallicFactor" : 0,
                "roughnessFactor" : 0.4000000059604645
            }
        }
    ],
    "meshes" : [
        {
            "name" : "Cube",
            "primitives" : [
                {
                    "attributes" : {
                        "POSITION" : 0,
                        "NORMAL" : 1,
                        "TEXCOORD_0" : 2
                    },
                    "indices" : 3,
                    "material" : 0
                }
            ]
        }
    ],
    "textures" : [
        {
            "sampler" : 0,
            "source" : 0
        }
    ],
    "images" : [
        {
            "mimeType" : "image/png",
            "name" : "ImphenziaPalette01",
            "uri" : "ImphenziaPalette01.png"
        }
    ],
    "accessors" : [
        {
            "bufferView" : 0,
            "componentType" : 5126,
            "count" : 13728,
            "max" : [
                0.19916875660419464,
                0.9019858837127686,
                5.840239524841309
            ],
            "min" : [
                -0.19916875660419464,
                -1.1521986722946167,
                -2.499044895172119
            ],
            "type" : "VEC3"
        },
        {
            "bufferView" : 1,
            "componentType" : 5126,
            "count" : 13728,
            "type" : "VEC3"
        },
        {
            "bufferView" : 2,
            "componentType" : 5126,
            "count" : 13728,
            "type" : "VEC2"
        },
        {
            "bufferView" : 3,
            "componentType" : 5123,
            "count" : 21906,
            "type" : "SCALAR"
        }
    ],
    "bufferViews" : [
        {
            "buffer" : 0,
            "byteLength" : 164736,
            "byteOffset" : 0
        },
        {
            "buffer" : 0,
            "byteLength" : 164736,
            "byteOffset" : 164736
        },
        {
            "buffer" : 0,
            "byteLength" : 109824,
            "byteOffset" : 329472
        },
        {
            "buffer" : 0,
            "byteLength" : 43812,
            "byteOffset" : 439296
        }
    ],
    "samplers" : [
        {
            "magFilter" : 9728,
            "minFilter" : 9984
        }
    ],
    "buffers" : [
        {
            "byteLength" : 483108,
            "uri" : "m4 suppresor.bin"
        }
    ]
}
